<?xml version="1.0" encoding="utf-8"?>
<!-- Generator: Adobe Illustrator 21.0.0, SVG Export Plug-In . SVG Version: 6.00 Build 0)  -->
<svg version="1.1" xmlns="http://www.w3.org/2000/svg" xmlns:xlink="http://www.w3.org/1999/xlink" x="0px" y="0px"
	 viewBox="0 0 190 200" enable-background="new 0 0 190 200" xml:space="preserve">
<g id="レイヤー_13">
</g>
<g id="レイヤー_15">
</g>
<g id="レイヤー_1">
	
		<path fill="#3069B3" stroke="#03418F" stroke-width="2.8346457" stroke-linecap="round" stroke-linejoin="round" stroke-miterlimit="10" d="
		M137.8333282,120c-0.3333282,23-20.9999924,42.6666718-20.9999924,42.6666718s-14.7993546,6.6116486-28.5493546,7.1116486
		s-26.25-11.25-26.25-11.25l8-27.25c0,0-8.7775726-1.844986-14.655777,0.4383545C49.5,134,45.3333321,141.5,45.3333321,141.5
		S40.3854904,139.7807465,36.5,139.3333282c0-5.6587524,3.4793205-16.852829,13.7863541-22.5115891
		s19.8056641-4.8503647,24.6560364-5.0524673C79.7927551,111.5671768,137.8333282,120,137.8333282,120z"/>
	<path fill="#1D58A3" d="M112,124.8333359c-30,16.9999924-42-3-43.5-12.5s34-2,34-2L112,124.8333359z"/>
	<path fill="#093975" d="M129.1692657,116.9260635c-6.5047684,16.5329514-18.4301758,24.3928909-18.4301758,24.3928909
		l-11.3833542-22.7667007L129.1692657,116.9260635z"/>
	
		<path fill="#3069B3" stroke="#03418F" stroke-width="2.8346457" stroke-linecap="round" stroke-linejoin="round" stroke-miterlimit="10" d="
		M98.5,169.6666718C81.8333359,191,45.3333321,183,38,180.6666718c-6.333334,10.6666565-13.083334-9.5-0.9166679-9.5
		s31.0833321-14.5,31.0833321-14.5L98.5,169.6666718z"/>
	<path fill="#3069B3" d="M120,150.6666718C134,160.1666718,140,182,140,182c8.6666718-7,12.3333282,3,6,6.3333282
		c-4.0557098,2.1345825-9.0441437,3.3774719-19.8554077-2.311264S92.6666641,178,92.6666641,178
		C71,177.6666718,51.75,166.8333282,62,147S106,141.1666718,120,150.6666718z"/>
	
		<path fill="none" stroke="#03418F" stroke-width="2.8346457" stroke-linecap="round" stroke-linejoin="round" stroke-miterlimit="10" d="
		M99.8333359,145.3333282C119.8333359,150,133.8333282,161,140,182c7.25-4.3333282,10.5,0.9166718,8.5,4.4166718
		s-8.25,4.25-14.25,2.5s-19.5-9.75-42.25-10.25s-45-16.5-24-40.75"/>
	
		<path fill="#FFDBBD" stroke="#E09E67" stroke-width="1.4173229" stroke-linecap="round" stroke-linejoin="round" stroke-miterlimit="10" d="
		M45.3333549,140.8332977c-3.833374-4.166626-7.833374-2.5-7.833374-2.5s-1.5-0.166626-4,2.166687s-1.6666279,5.333313,0.5,7.5
		c0,0,2.166687,3.833313,4.5,1.333313c0.0004883,0.0012817,0.00177,0.0024414,0.0022583,0.0037231
		c0.6231079-1.4244995,0.6715088-3.6782837-1.0022583-4.8370361c1.6737671,1.1587524,1.6253662,3.4125366,1.0022583,4.8370361
		c0.4291992,1.1317139,2.8964844,2.0808105,4.3433838,0.7050171c0.1003418-0.0953979,0.2156982-0.1630249,0.3363037-0.213623
		c0.8513794-1.5714111,1.4822998-3.9682007-0.8485718-5.9951172c2.3308716,2.0269165,1.6999512,4.4237061,0.8485718,5.9951172
		c0.3048706-0.1278076,0.6506958-0.1109619,0.9262085,0.1046143c0.3239136,0.253418,0.859375,0.2871094,2.0585327-0.2663574
		C48.3333549,148.6666718,49.1666679,144.9999847,45.3333549,140.8332977z"/>
	
		<path fill="#3069B3" stroke="#03418F" stroke-width="2.8346457" stroke-linecap="round" stroke-linejoin="round" stroke-miterlimit="10" d="
		M67.75,111.9166641c-25.25-8.75-37.75-15-37.75-15l8-14l32.25,26.75L67.75,111.9166641"/>
	<g>
		<g>
			<path fill="#3069B3" d="M85.5267105,90.5752335c-2.1326904-17.8883667-0.2993164-34.0549889-0.2993164-34.0549889
				c27.0640259-8.2784424,64.8037186-5.6724854,80.0434647-0.7744141
				c-1.5656128-10.37854-4.5998535-20.4709473-9.6761475-28.2806416c-13-20-38.9119949-23.0385132-66.4119949-20.0385132
				S45.2009087,26.4973545,45.2009087,35.9973564s12,11,12,11s-5.1495972,16.4865723-5.1495972,38.4865685
				s23.5433922,36.4812622,55.0433922,36.4812622s52.5563431-6.6677246,56.8551712-23.1027832
				c0.6583862-2.5172119,1.2226562-5.4725342,1.6618652-8.7386475
				C153.1075897,87.2906265,125.2762833,84.1878433,85.5267105,90.5752335z"/>
			<path fill="#FFDBBD" d="M85.2273941,56.5202446c0,0-1.833374,16.1666222,0.2993164,34.0549889
				c39.7495728-6.3873901,67.5808792-3.2846069,80.0850296-0.4514771
				c1.3086548-9.7315674,1.4888306-22.2486572-0.3408813-34.3779259
				C150.0311127,50.8477592,112.29142,48.2418022,85.2273941,56.5202446z"/>
		</g>
		
			<path id="XMLID_15_" fill="none" stroke="#03418F" stroke-width="2.8346457" stroke-linecap="round" stroke-linejoin="round" stroke-miterlimit="10" d="
			M155.594696,27.4652214c13,20,12.6539459,54.9621849,8.3551636,71.3972168
			c-4.2987976,16.4350433-25.3551636,23.1027756-56.8551712,23.1027756s-55.0433731-14.4812622-55.0433731-36.4812622
			s5.1496086-38.486557,5.1496086-38.486557s-12-1.5-12-11S61.6827126,10.426713,89.1827087,7.426713
			S142.594696,7.4652209,155.594696,27.4652214z"/>
		
			<path fill="none" stroke="#E09E67" stroke-width="2.8346457" stroke-linecap="round" stroke-linejoin="round" stroke-miterlimit="10" d="
			M142.3107147,82.853569c-2.1666718-3.6666641-6.5-2.6666641-8.1666718,0.3333359"/>
		<path fill="#FFFFFF" stroke="#000000" stroke-linecap="round" stroke-linejoin="round" stroke-miterlimit="10" d="
			M154.1065369,60.1731033c9.6091461,2.0138206,7.0423737,24.7272949-1.9227142,24.4382935
			C143.2187195,84.3223953,144.4973907,61.3813972,154.1065369,60.1731033z"/>
		<path d="M157.661911,62.8410835c4.5162201,4.5147591,2.5753174,15.2632866,0.2798767,18.7261696
			c-2.2954559,3.462883-7.1236267-0.1020432-7.5955963-6.0279007
			C149.8742065,69.6134949,153.1456909,58.3263245,157.661911,62.8410835z"/>
		
			<path fill="none" stroke="#000000" stroke-width="3.2674139" stroke-linecap="round" stroke-linejoin="round" stroke-miterlimit="10" d="
			M156.3312683,58.2625084c-2.5935211,4.4665985-7.3172913,3.7277184-7.3172913,3.7277184"/>
		<path fill="#FFFFFF" stroke="#000000" stroke-linecap="round" stroke-linejoin="round" stroke-miterlimit="10" d="
			M111.0146255,59.6342926c12.2593918,0.2152481,11.593483,24.949028-0.4199905,24.997673
			S98.7552414,59.4190407,111.0146255,59.6342926z"/>
		
			<path fill="none" stroke="#000000" stroke-width="3.2674139" stroke-linecap="round" stroke-linejoin="round" stroke-miterlimit="10" d="
			M120.5014877,60.8180389C113,63.4166679,107.5,56.7916679,107.5,56.7916679"/>
		<path d="M116.1236877,62.3376617c5.480423,5.2680283,4.9272842,15.6172409,0.8037567,19.267952
			c-4.1235275,3.6507187-9.6223145,0.1051254-10.5140762-5.9165192S108.0528946,58.3230019,116.1236877,62.3376617z"/>
		
			<path fill="none" stroke="#03418F" stroke-width="2.8346457" stroke-linecap="round" stroke-linejoin="round" stroke-miterlimit="10" d="
			M164.5,89.9166641c-37.5-6.25-72.75-0.75-90.5,4.75"/>
		
			<path fill="none" stroke="#03418F" stroke-width="2.8346457" stroke-linecap="round" stroke-linejoin="round" stroke-miterlimit="10" d="
			M90.2604294,37.4011116c-9.5364456,14.511982-4.5609131,54.1089668-4.5609131,54.1089668"/>
	</g>
</g>
<g id="レイヤー_8">
</g>
<g id="レイヤー_9">
</g>
<g id="レイヤー_10">
</g>
<g id="レイヤー_11">
</g>
<g id="レイヤー_12">
</g>
<g id="レイヤー_5">
</g>
<g id="レイヤー_6">
</g>
<g id="レイヤー_7">
</g>
<g id="レイヤー_6のコピー">
</g>
<g id="レイヤー_14">
	<g>
		
			<path fill="#3069B3" stroke="#03418F" stroke-width="2.8346457" stroke-linecap="round" stroke-linejoin="round" stroke-miterlimit="10" d="
			M138.47966,115.5194855c10.9877167-1.8927536,18.8795624,4.539444,14.6999512,13.2183075
			C149,137.4166718,129.3146973,136.0953979,118.5,131.1666718L119.1666641,119.5
			C119.1666641,119.5,127.4919357,117.4122391,138.47966,115.5194855z"/>
		
			<path fill="#FFDBBD" stroke="#E09E67" stroke-width="1.4173229" stroke-linecap="round" stroke-linejoin="round" stroke-miterlimit="10" d="
			M121.9999771,121.8332901c-3.5-3.666626-11-5.833313-15.166626-3.5c-3.7578735,2.1044312-3.5739136,7.5808105-0.4471436,8.2718506
			c0.5891724-2.3920898,2.4521484-4.9719849,6.4471436-5.1051636c-3.9949951,0.1331787-5.8579712,2.7130737-6.4471436,5.1051636
			c0.34021,0.0751953,0.7049561,0.1105957,1.1137695,0.0615234c-0.9059448,3.623848,3.6488647,4.5037918,5.1352539,3.1515579
			c-0.1717529-2.4368362,1.184021-5.3335037,4.3647461-5.6515579c-3.1807251,0.3180542-4.536499,3.2147217-4.3647461,5.6515579
			c0.1542969-0.1403809,0.286377-0.296875,0.3647461-0.4849243c0.833374,2.666687,6.333374,2.333374,7.333374,1.166687
			C122.4999771,133.9999847,129.9999847,126.8332901,121.9999771,121.8332901z M117.6666641,131.3332977
			c0-1.833313,0.833313-2.833313,2.5-3.3333206C118.4999771,128.4999847,117.6666641,129.4999847,117.6666641,131.3332977z"/>
	</g>
</g>
</svg>
