<?xml version="1.0" encoding="utf-8"?>
<!-- Generator: Adobe Illustrator 21.0.0, SVG Export Plug-In . SVG Version: 6.00 Build 0)  -->
<svg version="1.1" xmlns="http://www.w3.org/2000/svg" xmlns:xlink="http://www.w3.org/1999/xlink" x="0px" y="0px"
	 viewBox="0 0 190 200" enable-background="new 0 0 190 200" xml:space="preserve">
<g id="レイヤー_13">
</g>
<g id="レイヤー_15">
</g>
<g id="レイヤー_1">
</g>
<g id="レイヤー_8">
</g>
<g id="レイヤー_9">
</g>
<g id="レイヤー_10">
</g>
<g id="レイヤー_11">
</g>
<g id="レイヤー_12">
</g>
<g id="レイヤー_5">
</g>
<g id="レイヤー_6">
	
		<path fill="#3069B3" stroke="#03418F" stroke-width="2.8346457" stroke-linecap="round" stroke-linejoin="round" stroke-miterlimit="10" d="
		M137.8333282,122.0001297C137.5,145.0001221,117,164.0001221,117,164.0001221s-14.9660187,7.2783203-28.7160187,7.7783203
		s-26.25-11.25-26.25-11.25l8-27.25c0,0-8.7775726-1.844986-14.655777,0.4383545
		c-5.8782043,2.2833252-10.0448723,9.7833252-10.0448723,9.7833252S40.3854904,141.7808685,36.5,141.3334656
		c0-5.6587677,3.4793205-16.8528366,13.7863541-22.5116043c10.3070297-5.6587601,19.8056641-4.8503647,24.6560364-5.0524597
		C79.7927551,113.5672989,137.8333282,122.0001297,137.8333282,122.0001297z"/>
	
		<path fill="#FFDBBD" stroke="#E09E67" stroke-width="1.4173229" stroke-linecap="round" stroke-linejoin="round" stroke-miterlimit="10" d="
		M45.3333321,142.8334198c-3.833313-4.166626-7.833313-2.5-7.833313-2.5s-1.5-0.166626-4,2.166687s-1.6666851,5.333313,0.5,7.5
		c0,0,2.166626,3.833313,4.5,1.333313c0.0004883,0.0012817,0.001709,0.0023804,0.0021973,0.0036621
		c0.6230469-1.4244995,0.6715088-3.6782227-1.0021973-4.8369751c1.6737061,1.1587524,1.6252441,3.4124756,1.0021973,4.8369751
		c0.4290161,1.1315918,2.8964233,2.0808716,4.3433838,0.7050781c0.1003418-0.0953979,0.2156982-0.1630249,0.3363037-0.213623
		c0.8513794-1.5714111,1.4822998-3.9682007-0.8485718-5.9951172c2.3308716,2.0269165,1.6999512,4.4237061,0.8485718,5.9951172
		c0.3048706-0.1278076,0.6506958-0.1109619,0.9262695,0.1046143c0.3238525,0.253418,0.859314,0.2871094,2.0584717-0.2663574
		C48.3333321,150.6667938,49.1666451,147.0001068,45.3333321,142.8334198z"/>
	<path fill="#3069B3" d="M121.6666641,160.8334656c-21,24.5-49,19.5-75,20.5c-9,11.5-12.1666679-6.6666718-2.6666679-8.8333435
		c5.0189362-1.1446686,24.5-1.5,33.1666641-23.6666565C82.6710129,134.7550354,142.6666718,136.3334656,121.6666641,160.8334656z"/>
	
		<path fill="none" stroke="#03418F" stroke-width="2.8346457" stroke-linecap="round" stroke-linejoin="round" stroke-miterlimit="10" d="
		M126.6666641,152.5001221c-14.75,22.5-40.1666641,33.9166718-79.3333282,27.5
		c-3.1666641,6-12.8333321,4.1666718-8.0833321-2.5833282s4.75-4,12.5-6s21-9,23.5-14.25"/>
	<path fill="#1D58A3" d="M112,126.8334579c-30,17.0000076-42-3-43.5-12.5s34-2,34-2L112,126.8334579z"/>
	<path fill="#093975" d="M129.1692657,118.9261856c-6.5047684,16.5329666-18.4301758,24.3928909-18.4301758,24.3928909
		l-11.3833542-22.7666931L129.1692657,118.9261856z"/>
	
		<path fill="#3069B3" stroke="#03418F" stroke-width="2.8346457" stroke-linecap="round" stroke-linejoin="round" stroke-miterlimit="10" d="
		M82.6666641,149.0001221c14.6666718-6.3333282,27.8333359,2.8333435,28,14.5
		c0.1666718,11.6666718-11.3333282,23.5-24.6666641,25.8333435c7.3333359,3,5.3333359,5.8333282,2.8333359,7.6666565
		c-2.5,1.8333435-11.5-2-12.5-6.5s7.1666641-13-5.1666718-15.1666565
		c-12.3333321-2.1666718-17.3333321-11.8333435-15.9999962-22.6666718c1.3333321-10.8333282,15.6666679-20,15.6666679-20"/>
	
		<path fill="#3069B3" stroke="#03418F" stroke-width="2.8346457" stroke-linecap="round" stroke-linejoin="round" stroke-miterlimit="10" d="
		M67.75,113.9167938c-25.25-8.75-37.75-15-37.75-15l8-14l32.25,26.75L67.75,113.9167938"/>
</g>
<g id="レイヤー_7">
</g>
<g id="レイヤー_6のコピー">
</g>
<g id="レイヤー_14">
	<g>
		<g>
			<path fill="#3069B3" d="M85.5267181,92.8299942c-2.1326904-17.8883667-0.2993164-34.0549927-0.2993164-34.0549927
				c27.0640259-8.2784424,64.8037109-5.6724854,80.043457-0.7744141c-1.5656128-10.37854-4.5998535-20.4709473-9.6761475-28.2806377
				c-13-20-38.9119873-23.0385132-66.4119873-20.0385132S45.2009163,28.7521152,45.2009163,38.2521133s12,11,12,11
				s-5.1495972,16.4865723-5.1495972,38.4865723s23.5433922,36.4812622,55.0433922,36.4812622
				s52.5563354-6.6677246,56.8551636-23.1027832c0.6583862-2.5172119,1.2226562-5.4725342,1.6618652-8.7386475
				C153.1075897,89.5453873,125.2762909,86.4426041,85.5267181,92.8299942z"/>
			<path fill="#FFDBBD" d="M85.2274017,58.7750015c0,0-1.833374,16.166626,0.2993164,34.0549927
				c39.7495728-6.3873901,67.5808716-3.2846069,80.085022-0.4514771c1.3086548-9.7315674,1.4888306-22.2486572-0.3408813-34.3779297
				C150.0311127,53.1025162,112.2914276,50.4965591,85.2274017,58.7750015z"/>
		</g>
		
			<path id="XMLID_12_" fill="none" stroke="#03418F" stroke-width="2.8346457" stroke-linecap="round" stroke-linejoin="round" stroke-miterlimit="10" d="
			M155.594696,29.7199802c13,20.0000019,12.6539612,54.9621887,8.3551636,71.3972244s-25.3551636,23.1027756-56.8551559,23.1027756
			s-55.0433807-14.4812622-55.0433807-36.4812622s5.1496124-38.486557,5.1496124-38.486557s-12-1.5-12-11
			S61.6827202,12.6814728,89.182724,9.6814728S142.594696,9.7199802,155.594696,29.7199802z"/>
		
			<path fill="none" stroke="#E09E67" stroke-width="2.8346457" stroke-linecap="round" stroke-linejoin="round" stroke-miterlimit="10" d="
			M142.3107147,85.1083298c-2.1666565-3.6666641-6.5-2.6666641-8.1666565,0.3333359"/>
		<path fill="#FFFFFF" stroke="#000000" stroke-linecap="round" stroke-linejoin="round" stroke-miterlimit="10" d="
			M154.1065521,62.4278641c9.6091461,2.0138168,7.0423737,24.7272949-1.9227295,24.4382935
			C143.2187195,86.5771484,144.497406,63.6361542,154.1065521,62.4278641z"/>
		<path d="M157.6619263,65.0958405c4.5162201,4.5147629,2.5753174,15.2632904,0.2798615,18.7261734
			c-2.2954407,3.4628754-7.1236115-0.1020432-7.5955963-6.0279007S153.1456909,60.5810814,157.6619263,65.0958405z"/>
		
			<path fill="none" stroke="#000000" stroke-width="3.2674139" stroke-linecap="round" stroke-linejoin="round" stroke-miterlimit="10" d="
			M156.3312683,60.5172691c-2.5935059,4.4666023-7.3172913,3.7277184-7.3172913,3.7277184"/>
		<path fill="#FFFFFF" stroke="#000000" stroke-linecap="round" stroke-linejoin="round" stroke-miterlimit="10" d="
			M111.0146332,61.8890495c12.2593918,0.2152519,11.593483,24.9490318-0.4199905,24.9976768
			S98.755249,61.6738014,111.0146332,61.8890495z"/>
		
			<path fill="none" stroke="#000000" stroke-width="3.2674139" stroke-linecap="round" stroke-linejoin="round" stroke-miterlimit="10" d="
			M120.5014954,63.0727997c-7.5014877,2.5986252-13.0014877-4.0263748-13.0014877-4.0263748"/>
		<path d="M116.123703,64.5924225c5.4804153,5.2680206,4.9272766,15.6172409,0.8037491,19.267952
			c-4.1235275,3.6507187-9.6223145,0.1051254-10.5140762-5.9165192
			C105.5216217,71.9222107,108.0529022,60.5777626,116.123703,64.5924225z"/>
		
			<path fill="none" stroke="#03418F" stroke-width="2.8346457" stroke-linecap="round" stroke-linejoin="round" stroke-miterlimit="10" d="
			M164.5000153,92.1714249c-37.5000076-6.25-72.7500076-0.75-90.5000076,4.75"/>
		
			<path fill="none" stroke="#03418F" stroke-width="2.8346457" stroke-linecap="round" stroke-linejoin="round" stroke-miterlimit="10" d="
			M90.260437,39.6558723c-9.5364456,14.511982-4.5609131,54.1089668-4.5609131,54.1089668"/>
	</g>
	<g>
		
			<path fill="#3069B3" stroke="#03418F" stroke-width="2.8346457" stroke-linecap="round" stroke-linejoin="round" stroke-miterlimit="10" d="
			M138.4770203,117.5196152c10.9877167-1.8927536,18.8795624,4.539444,14.6999512,13.2183151
			s-23.8649139,7.3575897-34.6796112,2.4288635l0.6666641-11.6666641
			C119.1640244,121.5001297,127.489296,119.4123688,138.4770203,117.5196152z"/>
		
			<path fill="#FFDBBD" stroke="#E09E67" stroke-width="1.4173229" stroke-linecap="round" stroke-linejoin="round" stroke-miterlimit="10" d="
			M121.9973373,123.8334198c-3.5-3.666626-11-5.833313-15.166626-3.5c-3.7578735,2.1044312-3.5739136,7.5808105-0.4471436,8.2718506
			c0.5891724-2.3920898,2.4521484-4.9719849,6.4471436-5.1051636c-3.9949951,0.1331787-5.8579712,2.7130737-6.4471436,5.1051636
			c0.34021,0.0751953,0.7049561,0.1105957,1.1137695,0.0615234c-0.9059448,3.6238403,3.6488647,4.5037842,5.1352539,3.1515503
			c-0.1717529-2.4368286,1.184021-5.3334961,4.3647461-5.6515503c-3.1807251,0.3180542-4.536499,3.2147217-4.3647461,5.6515503
			c0.1542969-0.1403809,0.286377-0.296875,0.3647461-0.4849243c0.833374,2.666687,6.333374,2.333374,7.333374,1.166687
			C122.4973373,136.0001068,129.997345,128.8334198,121.9973373,123.8334198z M117.6640244,133.3334198
			c0-1.833313,0.833313-2.833313,2.5-3.333313C118.4973373,130.5001068,117.6640244,131.5001068,117.6640244,133.3334198z"/>
	</g>
</g>
</svg>
