<?xml version="1.0" encoding="utf-8"?>
<!-- Generator: Adobe Illustrator 21.0.0, SVG Export Plug-In . SVG Version: 6.00 Build 0)  -->
<svg version="1.1" xmlns="http://www.w3.org/2000/svg" xmlns:xlink="http://www.w3.org/1999/xlink" x="0px" y="0px"
	 viewBox="0 0 190 200" enable-background="new 0 0 190 200" xml:space="preserve">
<g id="レイヤー_13">
</g>
<g id="レイヤー_15">
</g>
<g id="レイヤー_1">
</g>
<g id="レイヤー_8">
</g>
<g id="レイヤー_9">
</g>
<g id="レイヤー_10">
</g>
<g id="レイヤー_11">
</g>
<g id="レイヤー_12">
</g>
<g id="レイヤー_5">
</g>
<g id="レイヤー_6">
</g>
<g id="レイヤー_7">
	
		<path fill="#3069B3" stroke="#03418F" stroke-width="2.8346457" stroke-linecap="round" stroke-linejoin="round" stroke-miterlimit="10" d="
		M137.8555298,120c-0.3333282,23-20.9999924,42.6666718-20.9999924,42.6666718s-14.7993546,6.6116486-28.5493546,7.1116486
		s-26.25-11.25-26.25-11.25l8-27.25c0,0-8.7775726-1.844986-14.655777,0.4383545C49.5222015,134,45.3555374,141.5,45.3555374,141.5
		s-4.9478416-1.7192535-8.8333359-2.1666718c0-5.6587524,3.4793243-16.852829,13.7863541-22.5115891
		s19.8056717-4.8503647,24.6560364-5.0524673C79.8149567,111.5671768,137.8555298,120,137.8555298,120z"/>
	<path fill="#1D58A3" d="M112.0222015,124.8333359c-30,16.9999924-42-3-43.5-12.5s34-2,34-2L112.0222015,124.8333359z"/>
	<path fill="#093975" d="M129.1914673,116.9260635c-6.5047684,16.5329514-18.4301758,24.3928909-18.4301758,24.3928909
		l-11.3833466-22.7667007L129.1914673,116.9260635z"/>
	
		<path fill="#FFDBBD" stroke="#E09E67" stroke-width="1.4173229" stroke-linecap="round" stroke-linejoin="round" stroke-miterlimit="10" d="
		M45.3555489,140.8332977c-3.833374-4.166626-7.833374-2.5-7.833374-2.5s-1.5-0.166626-4,2.166687s-1.6666241,5.333313,0.5,7.5
		c0,0,2.166687,3.833313,4.5,1.333313c0.0004883,0.0012817,0.00177,0.0024414,0.0022583,0.0037231
		c0.6231079-1.4244995,0.6715088-3.6782837-1.0022583-4.8370361c1.6737671,1.1587524,1.6253662,3.4125366,1.0022583,4.8370361
		c0.4291992,1.1317139,2.8964844,2.0808105,4.3433838,0.7050171c0.1003418-0.0953979,0.2156982-0.1630249,0.3363037-0.213623
		c0.8513794-1.5714111,1.4822998-3.9682007-0.8485718-5.9951172c2.3308716,2.0269165,1.6999512,4.4237061,0.8485718,5.9951172
		c0.3048706-0.1278076,0.6506958-0.1109619,0.9262695,0.1046143c0.3238525,0.253418,0.859314,0.2871094,2.0584717-0.2663574
		C48.3555489,148.6666718,49.1888618,144.9999847,45.3555489,140.8332977z"/>
	
		<path fill="#3069B3" stroke="#03418F" stroke-width="2.8346457" stroke-linecap="round" stroke-linejoin="round" stroke-miterlimit="10" d="
		M118.8555374,142.3333282c19.407753-2.0375977,29.3333359,10.6666718,25.6666641,26s-24.3143692,17.8128815-26.680191,19.1226044
		c3.8857956,4.5853729-0.6424408,9.5286102-5.9340057,5.0286865c-2.7656784-2.3519287-4.5430984-5.1069641-2.2977829-8.6291199
		c2.2453156-3.522171,5.9119797-14.1888275-7.4213486-13.8554993s-15.6739807,4.1677399-35.1703262,11.4172058
		s-32.7959023,2.2713776-40.7603455-0.7085724c-7.3528805,6.2498169-8.0305595-3.9777527-4.4705811-6.9696655
		c3.5599785-2.9919281,4.7802238-0.6932373,10.4845829-1.5722961c5.7043648-0.8790741,30.5-4.5,37.5833359-40.8333435"/>
	
		<path fill="#3069B3" stroke="#03418F" stroke-width="2.8346457" stroke-linecap="round" stroke-linejoin="round" stroke-miterlimit="10" d="
		M67.7722015,111.9166641c-25.25-8.75-37.75-15-37.75-15l7.9999981-14l32.25,26.75L67.7722015,111.9166641"/>
	<g>
		<g>
			<path fill="#3069B3" d="M85.5489349,90.5752716c-2.1326904-17.8883667-0.2993164-34.0549927-0.2993164-34.0549927
				c27.0640259-8.2784424,64.8037109-5.6724854,80.043457-0.7744141c-1.5656128-10.37854-4.5998535-20.4709473-9.6761475-28.2806396
				c-13-20-38.9119873-23.0385132-66.4119873-20.0385132S45.2231293,26.4973907,45.2231293,35.9973907s12,11,12,11
				S52.0735321,63.483963,52.0735321,85.483963s23.543396,36.4812622,55.043396,36.4812622
				s52.5563354-6.6677246,56.8551636-23.1027832c0.6583862-2.5172119,1.2226562-5.4725342,1.6618652-8.7386475
				C153.1298065,87.2906647,125.2985077,84.1878815,85.5489349,90.5752716z"/>
			<path fill="#FFDBBD" d="M85.2496185,56.5202789c0,0-1.833374,16.166626,0.2993164,34.0549927
				c39.7495728-6.3873901,67.5808716-3.2846069,80.085022-0.4514771c1.3086548-9.7315674,1.4888306-22.2486572-0.3408813-34.3779297
				C150.0533295,50.8477936,112.3136444,48.2418365,85.2496185,56.5202789z"/>
		</g>
		
			<path id="XMLID_9_" fill="none" stroke="#03418F" stroke-width="2.8346457" stroke-linecap="round" stroke-linejoin="round" stroke-miterlimit="10" d="
			M155.6169128,27.4652576c13,19.9999981,12.6539612,54.9621887,8.3551636,71.3972244s-25.3551636,23.1027756-56.8551636,23.1027756
			s-55.0433769-14.4812622-55.0433769-36.4812622s5.1496086-38.4865608,5.1496086-38.4865608s-12-1.5-12-11
			S61.7049332,10.4267492,89.2049332,7.4267488S142.6169128,7.4652567,155.6169128,27.4652576z"/>
		
			<path fill="none" stroke="#E09E67" stroke-width="2.8346457" stroke-linecap="round" stroke-linejoin="round" stroke-miterlimit="10" d="
			M142.3329315,82.8536072c-2.1666718-3.6666641-6.5-2.6666641-8.1666718,0.3333359"/>
		<path fill="#FFFFFF" stroke="#000000" stroke-linecap="round" stroke-linejoin="round" stroke-miterlimit="10" d="
			M154.1287689,60.1731415c9.6091461,2.0138168,7.0423737,24.7272949-1.9227295,24.4382935
			C143.2409363,84.3224258,144.5196075,61.3814316,154.1287689,60.1731415z"/>
		<path d="M157.6841278,62.8411217c4.5162354,4.5147591,2.5753174,15.2632866,0.2798767,18.7261696
			c-2.2954559,3.4628754-7.1236115-0.1020432-7.5955963-6.0279007S153.1679077,58.3263588,157.6841278,62.8411217z"/>
		
			<path fill="none" stroke="#000000" stroke-width="3.2674139" stroke-linecap="round" stroke-linejoin="round" stroke-miterlimit="10" d="
			M156.3534851,58.2625427c-2.5935059,4.4666023-7.3172913,3.7277222-7.3172913,3.7277222"/>
		<path fill="#FFFFFF" stroke="#000000" stroke-linecap="round" stroke-linejoin="round" stroke-miterlimit="10" d="
			M111.03685,59.6343269c12.2593842,0.2152519,11.593483,24.9490242-0.4199982,24.9976768
			C98.6033783,84.6806488,98.7774582,59.4190788,111.03685,59.6343269z"/>
		
			<path fill="none" stroke="#000000" stroke-width="3.2674139" stroke-linecap="round" stroke-linejoin="round" stroke-miterlimit="10" d="
			M120.5237045,60.8180771c-7.5014801,2.5986252-13.0014801-4.0263748-13.0014801-4.0263748"/>
		<path d="M116.1459122,62.3376961c5.4804153,5.2680244,4.9272766,15.6172371,0.8037567,19.2679558
			c-4.1235275,3.6507111-9.6223221,0.1051254-10.5140762-5.9165192
			C105.5438309,69.6674881,108.0751114,58.32304,116.1459122,62.3376961z"/>
		
			<path fill="none" stroke="#03418F" stroke-width="2.8346457" stroke-linecap="round" stroke-linejoin="round" stroke-miterlimit="10" d="
			M164.5222168,89.9167023c-37.4999924-6.25-72.7499924-0.75-90.4999924,4.75"/>
		
			<path fill="none" stroke="#03418F" stroke-width="2.8346457" stroke-linecap="round" stroke-linejoin="round" stroke-miterlimit="10" d="
			M90.2826462,37.4011497c-9.5364456,14.511982-4.5609055,54.1089592-4.5609055,54.1089592"/>
	</g>
	<g>
		
			<path fill="#3069B3" stroke="#03418F" stroke-width="2.8346457" stroke-linecap="round" stroke-linejoin="round" stroke-miterlimit="10" d="
			M138.5018768,115.5195236c10.9877167-1.8927536,18.8795776,4.539444,14.6999512,13.2183151
			c-4.1796112,8.6788635-23.8649139,7.3575897-34.6796036,2.4288635l0.6666641-11.6666641
			C119.1888885,119.5000381,127.5141602,117.4122772,138.5018768,115.5195236z"/>
		
			<path fill="#FFDBBD" stroke="#E09E67" stroke-width="1.4173229" stroke-linecap="round" stroke-linejoin="round" stroke-miterlimit="10" d="
			M122.0222015,121.8333282c-3.5-3.666626-11-5.833313-15.166626-3.5c-3.7578735,2.1044312-3.5739136,7.5808105-0.4471436,8.2718506
			c0.5891724-2.3920898,2.4521484-4.9719849,6.4471436-5.1051636c-3.9949951,0.1331787-5.8579712,2.7130737-6.4471436,5.1051636
			c0.34021,0.0751953,0.7049561,0.1105957,1.1137695,0.0615234c-0.9059448,3.6238403,3.6488647,4.5037842,5.1352539,3.1515503
			c-0.1717529-2.4368286,1.184021-5.3334961,4.3647461-5.6515503c-3.1807251,0.3180542-4.536499,3.2147217-4.3647461,5.6515503
			c0.1542969-0.1403809,0.286377-0.296875,0.3647461-0.4849243c0.833374,2.666687,6.333374,2.333374,7.333374,1.166687
			C122.5222015,134.0000153,130.0222015,126.8333282,122.0222015,121.8333282z M117.6888885,131.3333282
			c0-1.833313,0.833313-2.833313,2.5-3.333313C118.5222015,128.5000153,117.6888885,129.5000153,117.6888885,131.3333282z"/>
	</g>
</g>
<g id="レイヤー_6のコピー">
</g>
<g id="レイヤー_14">
</g>
</svg>
