<?xml version="1.0" encoding="utf-8"?><!--Generator: Adobe Illustrator 21.0.0, SVG Export Plug-In . SVG Version: 6.00 Build 0)--><svg version="1.1" xmlns="http://www.w3.org/2000/svg" xmlns:xlink="http://www.w3.org/1999/xlink" x="0px" y="0px" viewBox="0 0 190 200" enable-background="new 0 0 190 200" xml:space="preserve"><g id="レイヤー_6のコピー"><path fill="#3069B3" stroke="#03418F" stroke-width="2.8346457" stroke-linecap="round" stroke-linejoin="round" stroke-miterlimit="10" d="
		M137.8333282,122.0001297C137.5,145.0001221,117,164.0001221,117,164.0001221s-14.9660187,7.2783203-28.7160187,7.7783203
		s-26.25-11.25-26.25-11.25l8-27.25c0,0-8.7775726-1.844986-14.655777,0.4383545
		c-5.8782043,2.2833252-10.0448723,9.7833252-10.0448723,9.7833252S40.3854904,141.7808685,36.5,141.3334656
		c0-5.6587677,3.4793205-16.8528366,13.7863541-22.5116043c10.3070297-5.6587601,19.8056641-4.8503647,24.6560364-5.0524597
		C79.7927551,113.5672989,137.8333282,122.0001297,137.8333282,122.0001297z"/><path fill="#3069B3" d="M121.6666641,160.8334656c-21,24.5-49,19.5-75,20.5c-9,11.5-12.1666679-6.6666718-2.6666679-8.8333435
		c5.0189362-1.1446686,24.5-1.5,33.1666641-23.6666565C82.6710129,134.7550354,142.6666718,136.3334656,121.6666641,160.8334656z"/><path fill="none" stroke="#03418F" stroke-width="2.8346457" stroke-linecap="round" stroke-linejoin="round" stroke-miterlimit="10" d="
		M126.6666641,152.5001221c-14.75,22.5-40.1666641,33.9166718-79.3333282,27.5
		c-3.1666641,6-12.8333321,4.1666718-8.0833321-2.5833282s4.75-4,12.5-6s21-9,23.5-14.25"/><path fill="#1D58A3" d="M112,126.8334579c-30,17.0000076-42-3-43.5-12.5s34-2,34-2L112,126.8334579z"/><path fill="#093975" d="M129.1692657,118.9261856c-6.5047684,16.5329666-18.4301758,24.3928909-18.4301758,24.3928909
		l-11.3833542-22.7666931L129.1692657,118.9261856z"/><path fill="#FFDBBD" stroke="#E09E67" stroke-width="1.4173229" stroke-linecap="round" stroke-linejoin="round" stroke-miterlimit="10" d="
		M45.3333321,142.8334198c-3.833252-4.166626-7.833252-2.5-7.833252-2.5s-1.5-0.166626-4,2.166687s-1.6667461,5.333313,0.5,7.5
		c0,0,2.1665039,3.833313,4.5,1.333313c0.0004883,0.0012817,0.001709,0.0023804,0.0021973,0.0036621
		c0.6230469-1.4244995,0.6713867-3.6782227-1.0021973-4.8369751c1.673584,1.1587524,1.6252441,3.4124756,1.0021973,4.8369751
		c0.4289551,1.1315918,2.8963623,2.0808716,4.3432617,0.7050781c0.1003418-0.0953979,0.2158203-0.1630249,0.3364258-0.213623
		c0.8513184-1.5714111,1.4821777-3.9682007-0.8486328-5.9951172c2.3308105,2.0269165,1.6999512,4.4237061,0.8486328,5.9951172
		c0.3048096-0.1278076,0.6506348-0.1109619,0.9262695,0.1046143c0.3237305,0.253418,0.8592529,0.2871094,2.0583496-0.2663574
		C48.3333321,150.6667938,49.166584,147.0001068,45.3333321,142.8334198z"/><path fill="#3069B3" stroke="#03418F" stroke-width="2.8346457" stroke-linecap="round" stroke-linejoin="round" stroke-miterlimit="10" d="
		M82.6666641,149.0001221c14.6666718-6.3333282,27.8333359,2.8333435,28,14.5
		c0.1666718,11.6666718-11.3333282,23.5-24.6666641,25.8333435c7.3333359,3,5.3333359,5.8333282,2.8333359,7.6666565
		c-2.5,1.8333435-11.5-2-12.5-6.5s7.1666641-13-5.1666718-15.1666565
		c-12.3333321-2.1666718-17.3333321-11.8333435-15.9999962-22.6666718c1.3333321-10.8333282,15.6666679-20,15.6666679-20"/><path fill="#3069B3" stroke="#03418F" stroke-width="2.8346457" stroke-linecap="round" stroke-linejoin="round" stroke-miterlimit="10" d="
		M67.75,113.9167938c-25.25-8.75-37.75-15-37.75-15l8-14l32.25,26.75L67.75,113.9167938"/></g><g id="レイヤー_14"><g><g><path fill="#3069B3" d="M85.8582535,92.5050583c-2.1326904-17.8883667-0.2993164-34.0549965-0.2993164-34.0549965
				c27.0640259-8.2784424,64.8037186-5.6724854,80.0434647-0.7744141
				c-1.5656128-10.37854-4.5998535-20.4709473-9.6761475-28.2806377c-13-20-38.9119949-23.0385132-66.4119949-20.0385132
				S45.5324516,28.4271755,45.5324516,37.9271736s12,11,12,11s-5.1495972,16.4865761-5.1495972,38.4865761
				s23.5433922,36.4812622,55.0433922,36.4812622s52.5563431-6.6677246,56.8551712-23.1027832
				c0.6583862-2.5172119,1.2226562-5.4725342,1.6618652-8.7386475
				C153.4391327,89.2204514,125.6078262,86.1176682,85.8582535,92.5050583z"/><path fill="#FFDBBD" d="M85.5589371,58.4500618c0,0-1.833374,16.1666298,0.2993164,34.0549965
				c39.7495728-6.3873901,67.5808792-3.2846069,80.0850296-0.4514771
				c1.3086548-9.7315674,1.4888306-22.2486572-0.3408813-34.3779335
				C150.3626556,52.7775764,112.622963,50.1716194,85.5589371,58.4500618z"/></g><path id="XMLID_10_" fill="none" stroke="#03418F" stroke-width="2.8346457" stroke-linecap="round" stroke-linejoin="round" stroke-miterlimit="10" d="
			M155.926239,29.3950405c13,20.0000019,12.6539459,54.9621811,8.3551636,71.3972244
			c-4.2987976,16.4350357-25.3551636,23.1027756-56.8551712,23.1027756s-55.0433731-14.4812698-55.0433731-36.4812698
			s5.1496086-38.4865532,5.1496086-38.4865532s-12-1.5-12-11S62.0142555,12.3565331,89.5142517,9.3565331
			S142.926239,9.3950405,155.926239,29.3950405z"/><path fill="none" stroke="#E09E67" stroke-width="2.8346457" stroke-linecap="round" stroke-linejoin="round" stroke-miterlimit="10" d="
			M142.6422577,84.7833939c-2.1666718-3.6666718-6.5-2.6666718-8.1666718,0.3333282"/><path fill="#FFFFFF" stroke="#000000" stroke-linecap="round" stroke-linejoin="round" stroke-miterlimit="10" d="
			M154.4380798,62.1029243c9.6091461,2.0138206,7.0423737,24.7272911-1.9227142,24.4382896
			C143.5502625,86.2522125,144.8289337,63.3112144,154.4380798,62.1029243z"/><path d="M157.993454,64.7709045c4.5162201,4.5147629,2.5753174,15.2632828,0.2798767,18.7261658
			c-2.2954559,3.462883-7.1236267-0.1020355-7.5955963-6.0279007
			C150.2057495,71.5433121,153.4772339,60.2561417,157.993454,64.7709045z"/><path fill="none" stroke="#000000" stroke-width="3.2674139" stroke-linecap="round" stroke-linejoin="round" stroke-miterlimit="10" d="
			M156.6628113,60.1923294c-2.5935211,4.4665985-7.3172913,3.7277184-7.3172913,3.7277184"/><path fill="#FFFFFF" stroke="#000000" stroke-linecap="round" stroke-linejoin="round" stroke-miterlimit="10" d="
			M111.3461685,61.5641098c12.2593918,0.2152519,11.593483,24.949028-0.4199905,24.997673
			C98.9127045,86.6104355,99.0867844,61.3488617,111.3461685,61.5641098z"/><path fill="none" stroke="#000000" stroke-width="3.2674139" stroke-linecap="round" stroke-linejoin="round" stroke-miterlimit="10" d="
			M120.8330307,62.74786c-7.5014877,2.598629-13.0014877-4.0263748-13.0014877-4.0263748"/><path d="M116.4552307,64.2674789c5.480423,5.2680283,4.9272842,15.6172409,0.8037567,19.2679596
			c-4.1235275,3.6507111-9.6223145,0.1051178-10.5140762-5.9165268S108.3844376,60.2528229,116.4552307,64.2674789z"/><path fill="none" stroke="#03418F" stroke-width="2.8346457" stroke-linecap="round" stroke-linejoin="round" stroke-miterlimit="10" d="
			M164.831543,91.846489c-37.5-6.25-72.75-0.75-90.5,4.75"/><path fill="none" stroke="#03418F" stroke-width="2.8346457" stroke-linecap="round" stroke-linejoin="round" stroke-miterlimit="10" d="
			M90.5919724,39.3309326c-9.5364456,14.511982-4.5609131,54.108963-4.5609131,54.108963"/></g><g><path fill="#3069B3" stroke="#03418F" stroke-width="2.8346457" stroke-linecap="round" stroke-linejoin="round" stroke-miterlimit="10" d="
			M138.811203,117.4493027c10.9877167-1.8927536,18.8795624,4.539444,14.6999512,13.2183151
			s-23.8649139,7.3575897-34.6796112,2.4288635l0.6666641-11.6666641
			C119.4982071,121.4298172,127.8234787,119.3420563,138.811203,117.4493027z"/><path fill="#FFDBBD" stroke="#E09E67" stroke-width="1.4173229" stroke-linecap="round" stroke-linejoin="round" stroke-miterlimit="10" d="
			M122.3315201,123.7631149c-3.5-3.666626-11-5.833313-15.166626-3.5c-3.7578735,2.1044312-3.5739136,7.5808105-0.4471436,8.271843
			c0.5891724-2.3920822,2.4521484-4.9719772,6.4471436-5.1051559c-3.9949951,0.1331787-5.8579712,2.7130737-6.4471436,5.1051559
			c0.34021,0.0751953,0.7049561,0.1105957,1.1137695,0.0615234c-0.9059448,3.6238403,3.6488647,4.5037842,5.1352539,3.1515503
			c-0.1717529-2.4368286,1.184021-5.3334885,4.3647461-5.6515427c-3.1807251,0.3180542-4.536499,3.2147141-4.3647461,5.6515427
			c0.1542969-0.1403809,0.286377-0.296875,0.3647461-0.4849243c0.833374,2.666687,6.333374,2.333374,7.333374,1.166687
			C122.8315201,135.9297943,130.3315277,128.7631073,122.3315201,123.7631149z M117.9982071,133.2631073
			c0-1.833313,0.833313-2.833313,2.5-3.333313C118.8315201,130.4297943,117.9982071,131.4297943,117.9982071,133.2631073z"/></g></g></svg>