<?xml version="1.0" encoding="utf-8"?><!--Generator: Adobe Illustrator 21.0.0, SVG Export Plug-In . SVG Version: 6.00 Build 0)--><svg version="1.1" xmlns="http://www.w3.org/2000/svg" xmlns:xlink="http://www.w3.org/1999/xlink" x="0px" y="0px" viewBox="0 0 83.8333359 83.8333359" enable-background="new 0 0 83.8333359 83.8333359" xml:space="preserve"><g id="レイヤー_14"><g><path fill="#E0DFAB" stroke="#C7C573" stroke-width="2.5" stroke-miterlimit="10" d="M71,40.3333321
			C72.3333359,36.6666679,72.3333359,35,70.3333359,29.333334C69.0586548,25.7217369,73,23.2032967,71.5,17
			S57.9416389,6,41.8333321,6S14.333333,10.0366297,12,17s2.166667,9.4963379,0.5,12.2655678
			s-2.166667,5.5384598-1.166667,8.9011002c1,3.3626366,2.666667,6.5,0.666667,9.5695953
			c-2,3.0695992-2.166667,5.7362633,0.166667,10.0879135s-1.166667,4.8424911,0.5,10.8791237
			s13.058362,12.1300354,29.1666641,12.1300354S68.6666641,74.3333359,71,69.5366287
			c2.3333359-4.7966995-2-6.8699608,0.5-11.3699608s1.1666641-7.3333359-0.1666641-10C70,45.5,69.6666641,44,71,40.3333321z"/><ellipse fill="#C7C573" cx="41.8333321" cy="19.6595058" rx="24.8760242" ry="9.3404951"/><path fill="#7BB84A" d="M21.02244,24.7744503c4.4442749,2.5440941,12.102602,4.2255268,20.810915,4.2255268
			s16.3666382-1.6814327,20.8108521-4.2255268c-4.4442139-2.5440922-12.1025391-4.2254601-20.8108521-4.2254601
			S25.4667149,22.2303581,21.02244,24.7744503z"/><polygon fill="#A17E48" points="40.4316406,14.5561647 40.9121094,23.9442368 42.6347656,23.9442368 43.6308594,14.3536301 		"/><path fill="#C7C573" d="M32.3333321,51.9220543c17.8333359,3.1863098,29.8333359-2.5278854,32.0000038-4.7934113
			c2.1666641-2.2655258,5,2.1051979,1,4.7877083C61.3333321,54.5988579,53.6666679,58.9486694,40.5,57.8827629
			S30,52.8618507,32.3333321,51.9220543z"/><path fill="#C7C573" d="M32.3333321,65.5887222c17.8333359,3.1863098,29.8333359-2.5278854,32.0000038-4.7934113
			c2.1666641-2.2655258,5,2.1051941,1,4.7877045S53.6666679,72.6153336,40.5,71.5494308
			C27.333334,70.4835205,30,66.5285187,32.3333321,65.5887222z"/><path fill="#C7C573" d="M32.3333321,37.7553864c17.8333359,3.1863136,29.8333359-2.5278816,32.0000038-4.7934074
			c2.1666641-2.2655277,5,2.1051941,1,4.7877045S53.6666679,44.7820015,40.5,43.716095S30,38.6951828,32.3333321,37.7553864z"/><path fill="#9FD177" d="M28.5,23.3125c4.6666679-1.75,10-1.395834,10.9166679-1.145834
			c0.9166641,0.25-0.4166679,0.9166679-2.8333359,1.5C34.1666679,24.25,36.5,24.875,36.3125,25.375S32.5,26.75,30.583334,26.75
			s-1.9919434-0.9211025-1.5-1.583334C29.625,24.4375,26.645834,24.229166,28.5,23.3125z"/></g></g></svg>