<?xml version="1.0" encoding="utf-8"?><!--Generator: Adobe Illustrator 21.0.0, SVG Export Plug-In . SVG Version: 6.00 Build 0)--><svg version="1.1" xmlns="http://www.w3.org/2000/svg" xmlns:xlink="http://www.w3.org/1999/xlink" x="0px" y="0px" viewBox="0 0 150 150" enable-background="new 0 0 150 150" xml:space="preserve"><g><path fill="#5A5D59" d="M146.8817139,73.8114624c-7.0628662-7.5723877-22.4389648-12.7033081-33.27948-14.8027954
				c-5.1567993-0.9987183-11.7894287-2.8837891-15.7462769-6.6574707
				c-4.3217163-4.121521-5.7824097-10.3297729-6.8731689-15.9619751
				c-2.0995483-10.8405151-7.2304077-26.2166138-14.8027954-33.27948c-0.6148682-0.5734863-1.5748901-0.579895-2.1982422-0.015625
				c-7.7936401,7.0557861-12.7008057,22.4465942-14.8018188,33.295105
				c-1.0476074,5.4090576-2.4605103,12.5862427-6.4058228,16.6090698
				c-4.0881348,4.168457-10.7885742,5.1046753-16.3934326,6.1901855
				c-10.8485107,2.1010132-26.2393188,7.0081177-33.295105,14.8018188c-0.56427,0.6233521-0.5578613,1.583374,0.015625,2.1982422
				c7.0628662,7.5723877,22.4389648,12.7032471,33.27948,14.8027954c5.2990112,1.0262451,12.166687,2.0749512,16.1776733,6.0103149
				c4.1555786,4.0772095,5.37854,11.1191406,6.4417725,16.6091309c2.0995483,10.8405151,7.2304077,26.2166138,14.8027954,33.27948
				c0.6148682,0.5734863,1.5748291,0.579895,2.1982422,0.015564c7.7936401-7.0557861,12.7008057-22.4465332,14.8018188-33.2950439
				c1.1044922-5.7026978,2.34021-12.9226685,6.621521-17.0405273c3.9874268-3.8352051,10.8665161-4.7301025,16.1777344-5.758728
				c10.8485107-2.1010742,26.2393188-7.0081787,33.2950439-14.8018799
				C147.4616089,75.3863525,147.4552002,74.4263306,146.8817139,73.8114624z M82.0853271,75.9899292l-6.1039429,6.1039429
				c-0.5467529,0.5467529-1.4331665,0.5467529-1.9798584,0l-6.1039429-6.1039429
				c-0.5467529-0.5467529-0.5467529-1.4331665,0-1.9798584l6.1039429-6.1040039
				c0.5466919-0.5466919,1.4331055-0.5466919,1.9798584,0l6.1039429,6.1040039
				C82.6320801,74.5567627,82.6320801,75.4431763,82.0853271,75.9899292z"/></g><path fill="#4F524E" d="M74.0015259,69.3888321c0.5467224-0.5467224,1.4331284-0.5467224,1.9798508,0l6.1039734,6.1039658
		c0.0764465,0.0764542,0.1395416,0.1606522,0.1946259,0.248558c0.3387451-0.5405197,0.2756424-1.2610321-0.1946259-1.731308
		l-6.1039734-6.1039658c-0.5467224-0.5467224-1.4331284-0.5467224-1.9798508,0l-6.1039734,6.1039658
		c-0.4702301,0.4702301-0.5333252,1.1906967-0.1946259,1.7312622c0.0550842-0.0878601,0.1181793-0.1720581,0.1946259-0.2485123
		L74.0015259,69.3888321z"/><path fill="#727570" d="M73.8810425,3.0941162c-6.737854,6.0999146-11.3164062,18.4275513-13.7913818,28.6660767
		C67.0889893,17.4385986,74.9593506,8.9949951,74.9593506,8.9949951V2.6761475
		C74.5725708,2.6790771,74.1864014,2.817688,73.8810425,3.0941162z"/><path fill="#4F524E" d="M76.0792847,3.1097412c-0.3137207-0.2925415-0.7171631-0.4366455-1.1199341-0.4335938v6.3188477
		c0,0,7.9185791,8.4959717,14.9338989,22.897522C87.385498,21.6369019,82.6531372,9.241272,76.0792847,3.1097412z"/><path fill="#727570" d="M146.9153442,73.8895874c-6.0999146-6.737854-18.4275513-11.3164062-28.6660767-13.7913818
		c14.3215942,6.9993286,22.7651978,14.8696899,22.7651978,14.8696899h6.3188477
		C147.3303833,74.5811157,147.1917725,74.1949463,146.9153442,73.8895874z"/><path fill="#4F524E" d="M141.0144653,74.9678955c0,0-8.4959717,7.9185791-22.897522,14.9338989
		c10.2556152-2.5077515,22.6512451-7.2401123,28.7827759-13.8139648c0.2925415-0.3137207,0.4366455-0.7171631,0.4335938-1.1199341
		H141.0144653z"/><path fill="#4F524E" d="M75.0234985,140.9769287v6.3188477c0.3868408-0.0029297,0.7730103-0.1415405,1.0783691-0.4179688
		c6.737793-6.0999146,11.3164062-18.4275513,13.7913818-28.6660767
		C82.8939209,132.5333252,75.0234985,140.9769287,75.0234985,140.9769287z"/><path fill="#727570" d="M60.0896606,118.0794067c2.5077515,10.2556152,7.2400513,22.6512451,13.8139648,28.7827759
		c0.3137207,0.2925415,0.7171631,0.4366455,1.119873,0.4335938v-6.3188477
		C75.0234985,140.9769287,67.1049805,132.480957,60.0896606,118.0794067z"/><path fill="#4F524E" d="M2.6777344,75.0320435c0.0029907,0.3868408,0.1415405,0.7730103,0.4180298,1.0783691
		c6.0998535,6.737793,18.4275513,11.3164062,28.6660156,13.7913818C17.4401855,82.9024658,8.996582,75.0320435,8.996582,75.0320435
		H2.6777344z"/><path fill="#727570" d="M31.894104,60.0982056C21.6384888,62.605957,9.2429199,67.3382568,3.1113281,73.9121704
		c-0.2925415,0.3136597-0.4366455,0.7171021-0.4335938,1.119873H8.996582
		C8.996582,75.0320435,17.4925537,67.1135254,31.894104,60.0982056z"/></svg>